<svg width="17" height="16" viewBox="0 0 17 16" fill="none" xmlns="http://www.w3.org/2000/svg">
<path fill-rule="evenodd" clip-rule="evenodd" d="M8.20182 1.33301C4.52849 1.33301 1.53516 4.32634 1.53516 7.99967C1.53516 11.673 4.52849 14.6663 8.20182 14.6663C11.8752 14.6663 14.8685 11.673 14.8685 7.99967C14.8685 4.32634 11.8752 1.33301 8.20182 1.33301ZM7.53516 4.66634V7.33301H4.86849V8.66634H7.53516V11.333H8.86849V8.66634H11.5352V7.33301H8.86849V4.66634H7.53516ZM2.86849 7.99967C2.86849 10.9397 5.26182 13.333 8.20182 13.333C11.1418 13.333 13.5352 10.9397 13.5352 7.99967C13.5352 5.05967 11.1418 2.66634 8.20182 2.66634C5.26182 2.66634 2.86849 5.05967 2.86849 7.99967Z" fill="#005AA3"/>
</svg>
