<svg width="24" height="24" viewBox="0 0 24 24" fill="none" xmlns="http://www.w3.org/2000/svg">
<g clip-path="url(#clip0_10160_33084)">
<path d="M22 5.71986L17.405 1.86486L16.12 3.39486L20.715 7.24986L22 5.71986ZM7.88 3.38986L6.595 1.85986L2 5.71486L3.285 7.24486L7.88 3.38986ZM12.5 7.99986H11V13.9999L15.745 16.8549L16.5 15.6199L12.5 13.2499V7.99986ZM11.995 3.99986C7.02 3.99986 3 8.02986 3 12.9999C3 17.9699 7.02 21.9999 11.995 21.9999C16.97 21.9999 21 17.9699 21 12.9999C21 8.02986 16.97 3.99986 11.995 3.99986ZM12 19.9999C8.135 19.9999 5 16.8649 5 12.9999C5 9.13486 8.135 5.99986 12 5.99986C15.865 5.99986 19 9.13486 19 12.9999C19 16.8649 15.87 19.9999 12 19.9999Z" fill="#5D6071"/>
</g>
<defs>
<clipPath id="clip0_10160_33084">
<rect width="24" height="24" fill="white"/>
</clipPath>
</defs>
</svg>
