<svg width="24" height="24" viewBox="0 0 24 24" fill="none" xmlns="http://www.w3.org/2000/svg">
<g clip-path="url(#clip0_3247_21593)">
<path d="M22 5.72133L17.405 1.86633L16.12 3.39633L20.715 7.25133L22 5.72133ZM7.88 3.39133L6.595 1.86133L2 5.71633L3.285 7.24633L7.88 3.39133ZM12.5 8.00133H11V14.0013L15.745 16.8563L16.5 15.6213L12.5 13.2513V8.00133ZM11.995 4.00133C7.02 4.00133 3 8.03133 3 13.0013C3 17.9713 7.02 22.0013 11.995 22.0013C16.97 22.0013 21 17.9713 21 13.0013C21 8.03133 16.97 4.00133 11.995 4.00133ZM12 20.0013C8.135 20.0013 5 16.8663 5 13.0013C5 9.13633 8.135 6.00133 12 6.00133C15.865 6.00133 19 9.13633 19 13.0013C19 16.8663 15.87 20.0013 12 20.0013Z" fill="#5D6071"/>
</g>
<defs>
<clipPath id="clip0_3247_21593">
<rect width="24" height="24" fill="white" transform="translate(0 0.000976562)"/>
</clipPath>
</defs>
</svg>
