<svg width="14" height="9" viewBox="0 0 14 9" fill="none" xmlns="http://www.w3.org/2000/svg">
<path fill-rule="evenodd" clip-rule="evenodd" d="M4.17082 8.82102L0.659671 4.9321C0.444209 4.69346 0.44421 4.30654 0.659671 4.0679L4.17082 0.178982C4.38628 -0.0596618 4.73562 -0.0596617 4.95108 0.178982C5.16654 0.417626 5.16654 0.804542 4.95108 1.04319L2.38178 3.88891L13.698 3.88892C13.8637 3.88892 13.998 4.02323 13.998 4.18892L13.998 4.81108C13.998 4.97677 13.8637 5.11108 13.698 5.11108L2.38178 5.11108L4.95108 7.95681C5.16654 8.19546 5.16654 8.58237 4.95108 8.82102C4.73562 9.05966 4.38628 9.05966 4.17082 8.82102Z" fill="#5D6071"/>
</svg>
