<svg width="24" height="25" viewBox="0 0 24 25" fill="none" xmlns="http://www.w3.org/2000/svg">
<path fill-rule="evenodd" clip-rule="evenodd" d="M11.99 2.00293C6.47 2.00293 2 6.48293 2 12.0029C2 17.5229 6.47 22.0029 11.99 22.0029C17.52 22.0029 22 17.5229 22 12.0029C22 6.48293 17.52 2.00293 11.99 2.00293ZM12 20.0029C7.58 20.0029 4 16.4229 4 12.0029C4 7.58293 7.58 4.00293 12 4.00293C16.42 4.00293 20 7.58293 20 12.0029C20 16.4229 16.42 20.0029 12 20.0029ZM11 7.00293H12.5V12.2529L17 14.9229L16.25 16.1529L11 13.0029V7.00293Z" fill="#5D6071"/>
</svg>
