<svg width="16" height="16" viewBox="0 0 16 16" fill="none" xmlns="http://www.w3.org/2000/svg">
<path fill-rule="evenodd" clip-rule="evenodd" d="M7.99301 1.3335C4.31301 1.3335 1.33301 4.32016 1.33301 8.00016C1.33301 11.6802 4.31301 14.6668 7.99301 14.6668C11.6797 14.6668 14.6663 11.6802 14.6663 8.00016C14.6663 4.32016 11.6797 1.3335 7.99301 1.3335ZM8.66634 8.66683V4.66683H7.33301V8.66683H8.66634ZM8.66634 11.3335V10.0002H7.33301V11.3335H8.66634ZM2.66634 8.00016C2.66634 10.9468 5.05301 13.3335 7.99967 13.3335C10.9463 13.3335 13.333 10.9468 13.333 8.00016C13.333 5.0535 10.9463 2.66683 7.99967 2.66683C5.05301 2.66683 2.66634 5.0535 2.66634 8.00016Z" fill="#09090B"/>
</svg>
