<svg width="17" height="16" viewBox="0 0 17 16" fill="none" xmlns="http://www.w3.org/2000/svg">
<path fill-rule="evenodd" clip-rule="evenodd" d="M8.44516 1.33301C4.76516 1.33301 1.78516 4.31967 1.78516 7.99967C1.78516 11.6797 4.76516 14.6663 8.44516 14.6663C12.1318 14.6663 15.1185 11.6797 15.1185 7.99967C15.1185 4.31967 12.1318 1.33301 8.44516 1.33301ZM9.11849 8.66634V4.66634H7.78516V8.66634H9.11849ZM9.11849 11.333V9.99967H7.78516V11.333H9.11849ZM3.11849 7.99967C3.11849 10.9463 5.50516 13.333 8.45182 13.333C11.3985 13.333 13.7852 10.9463 13.7852 7.99967C13.7852 5.05301 11.3985 2.66634 8.45182 2.66634C5.50516 2.66634 3.11849 5.05301 3.11849 7.99967Z" fill="#09090B"/>
</svg>
