<svg width="21" height="21" viewBox="0 0 21 21" fill="none" xmlns="http://www.w3.org/2000/svg">
<path fill-rule="evenodd" clip-rule="evenodd" d="M0.875 10.8672C2.38875 7.20885 6.125 4.61719 10.5 4.61719C14.875 4.61719 18.6112 7.20885 20.125 10.8672C18.6112 14.5255 14.875 17.1172 10.5 17.1172C6.125 17.1172 2.38875 14.5255 0.875 10.8672ZM18.2175 10.8672C16.7737 8.05885 13.8162 6.28385 10.5 6.28385C7.18375 6.28385 4.22625 8.05885 2.7825 10.8672C4.22625 13.6755 7.175 15.4505 10.5 15.4505C13.825 15.4505 16.7737 13.6755 18.2175 10.8672ZM10.5 8.78385C11.7075 8.78385 12.6875 9.71719 12.6875 10.8672C12.6875 12.0172 11.7075 12.9505 10.5 12.9505C9.2925 12.9505 8.3125 12.0172 8.3125 10.8672C8.3125 9.71719 9.2925 8.78385 10.5 8.78385ZM6.5625 10.8672C6.5625 8.80052 8.33 7.11719 10.5 7.11719C12.67 7.11719 14.4375 8.80052 14.4375 10.8672C14.4375 12.9339 12.67 14.6172 10.5 14.6172C8.33 14.6172 6.5625 12.9339 6.5625 10.8672Z" fill="#005AA3"/>
</svg>
