<svg width="25" height="24" viewBox="0 0 25 24" fill="none" xmlns="http://www.w3.org/2000/svg">
<path d="M20.2549 6.76406L15.3979 1.72031C15.2625 1.57969 15.0797 1.5 14.8878 1.5H5.30035C4.90087 1.5 4.57812 1.83516 4.57812 2.25V21.75C4.57812 22.1648 4.90087 22.5 5.30035 22.5H19.7448C20.1443 22.5 20.467 22.1648 20.467 21.75V7.29609C20.467 7.09687 20.3903 6.90469 20.2549 6.76406ZM14.5538 3.22969L18.8014 7.64062H14.5538V3.22969ZM18.842 20.8125H6.20312V3.1875H13.0191V8.25C13.0191 8.51107 13.119 8.76145 13.2967 8.94606C13.4745 9.13066 13.7156 9.23438 13.967 9.23438H18.842V20.8125Z" fill="#D0E1EE"/>
</svg>
