<svg width="17" height="16" viewBox="0 0 17 16" fill="none" xmlns="http://www.w3.org/2000/svg">
<path fill-rule="evenodd" clip-rule="evenodd" d="M6.54675 7.56666V14.1311C6.54675 14.6608 7.1598 14.7933 7.48969 14.5477L10.3433 11.9043C10.4835 11.7939 10.5384 11.6532 10.5384 11.4876V7.42593L15.0002 2.25222C15.3164 1.87972 15.1789 1.33337 14.5851 1.33337H2.39011C1.75782 1.33337 1.73033 1.95146 1.975 2.25222L6.54675 7.56666ZM7.55336 7.01875L3.73632 2.6032H13.2601L9.55315 6.91125C9.47262 7.01875 9.41894 7.12894 9.41894 7.26331V11.1897L7.68758 12.7619V7.37081C7.68758 7.23644 7.63389 7.12625 7.55336 7.01875Z" fill="#5D6071"/>
</svg>
