<svg width="22" height="20" viewBox="0 0 22 20" fill="none" xmlns="http://www.w3.org/2000/svg">
<path fill-rule="evenodd" clip-rule="evenodd" d="M5.34371 8.33301C4.36405 8.33301 3.5625 9.08301 3.5625 9.99967C3.5625 10.9163 4.36405 11.6663 5.34371 11.6663C6.32338 11.6663 7.12493 10.9163 7.12493 9.99967C7.12493 9.08301 6.32338 8.33301 5.34371 8.33301ZM16.031 8.33301C15.0513 8.33301 14.2498 9.08301 14.2498 9.99967C14.2498 10.9163 15.0513 11.6663 16.031 11.6663C17.0107 11.6663 17.8122 10.9163 17.8122 9.99967C17.8122 9.08301 17.0107 8.33301 16.031 8.33301ZM8.90614 9.99967C8.90614 9.08301 9.70769 8.33301 10.6874 8.33301C11.667 8.33301 12.4686 9.08301 12.4686 9.99967C12.4686 10.9163 11.667 11.6663 10.6874 11.6663C9.70769 11.6663 8.90614 10.9163 8.90614 9.99967Z" fill="#005AA3"/>
</svg>
