<svg width="16" height="16" viewBox="0 0 16 16" fill="none" xmlns="http://www.w3.org/2000/svg">
<g clip-path="url(#clip0_241_36499)">
<path d="M7.33301 4.66683H8.66634V6.00016H7.33301V4.66683ZM7.33301 7.3335H8.66634V11.3335H7.33301V7.3335ZM7.99967 1.3335C4.31967 1.3335 1.33301 4.32016 1.33301 8.00016C1.33301 11.6802 4.31967 14.6668 7.99967 14.6668C11.6797 14.6668 14.6663 11.6802 14.6663 8.00016C14.6663 4.32016 11.6797 1.3335 7.99967 1.3335ZM7.99967 13.3335C5.05967 13.3335 2.66634 10.9402 2.66634 8.00016C2.66634 5.06016 5.05967 2.66683 7.99967 2.66683C10.9397 2.66683 13.333 5.06016 13.333 8.00016C13.333 10.9402 10.9397 13.3335 7.99967 13.3335Z" fill="#09090B"/>
</g>
<defs>
<clipPath id="clip0_241_36499">
<rect width="16" height="16" fill="white"/>
</clipPath>
</defs>
</svg>
