<svg width="16" height="16" viewBox="0 0 16 16" fill="none" xmlns="http://www.w3.org/2000/svg">
<path fill-rule="evenodd" clip-rule="evenodd" d="M1.33203 8.00016C1.33203 4.32016 4.3187 1.3335 7.9987 1.3335C11.6787 1.3335 14.6654 4.32016 14.6654 8.00016C14.6654 11.6802 11.6787 14.6668 7.9987 14.6668C4.3187 14.6668 1.33203 11.6802 1.33203 8.00016ZM8.66536 10.6668V12.0002H7.33203V10.6668H8.66536ZM7.9987 13.3335C5.0587 13.3335 2.66536 10.9402 2.66536 8.00016C2.66536 5.06016 5.0587 2.66683 7.9987 2.66683C10.9387 2.66683 13.332 5.06016 13.332 8.00016C13.332 10.9402 10.9387 13.3335 7.9987 13.3335ZM5.33203 6.66683C5.33203 5.1935 6.52536 4.00016 7.9987 4.00016C9.47203 4.00016 10.6654 5.1935 10.6654 6.66683C10.6654 7.52211 10.1387 7.98238 9.62587 8.43052C9.13938 8.85567 8.66536 9.26991 8.66536 10.0002H7.33203C7.33203 8.78598 7.96011 8.30455 8.51233 7.88128C8.94552 7.54923 9.33203 7.25297 9.33203 6.66683C9.33203 5.9335 8.73203 5.3335 7.9987 5.3335C7.26536 5.3335 6.66536 5.9335 6.66536 6.66683H5.33203Z" fill="#A2C3DD"/>
</svg>
