<svg width="16" height="16" viewBox="0 0 16 16" fill="none" xmlns="http://www.w3.org/2000/svg">
<path fill-rule="evenodd" clip-rule="evenodd" d="M5.9987 8.00004C7.28536 8.00004 8.33203 6.95337 8.33203 5.66671C8.33203 4.38004 7.28536 3.33337 5.9987 3.33337C4.71203 3.33337 3.66536 4.38004 3.66536 5.66671C3.66536 6.95337 4.71203 8.00004 5.9987 8.00004ZM5.9987 4.66671C6.55203 4.66671 6.9987 5.11337 6.9987 5.66671C6.9987 6.22004 6.55203 6.66671 5.9987 6.66671C5.44536 6.66671 4.9987 6.22004 4.9987 5.66671C4.9987 5.11337 5.44536 4.66671 5.9987 4.66671ZM3.1787 11.3334H6.03203C6.01203 11.44 5.9987 11.5534 5.9987 11.6667V12.6667H1.33203V11.6667C1.33203 10.1134 4.4387 9.33337 5.9987 9.33337C6.37203 9.33337 6.83203 9.38004 7.3187 9.46671C6.84536 9.78671 6.45203 10.1867 6.22536 10.6734C6.1887 10.6734 6.15036 10.6717 6.11203 10.67C6.0737 10.6684 6.03536 10.6667 5.9987 10.6667C4.9787 10.6667 3.8387 11 3.1787 11.3334ZM10.9987 9.66671C9.77203 9.66671 7.33203 10.34 7.33203 11.6667V12.6667H14.6654V11.6667C14.6654 10.34 12.2254 9.66671 10.9987 9.66671ZM12.6654 7.00004C12.6654 7.62671 12.312 8.16671 11.8054 8.45337C11.5654 8.58671 11.292 8.66671 10.9987 8.66671C10.7054 8.66671 10.432 8.58671 10.192 8.45337C9.68536 8.16671 9.33203 7.62671 9.33203 7.00004C9.33203 6.08004 10.0787 5.33337 10.9987 5.33337C11.9187 5.33337 12.6654 6.08004 12.6654 7.00004Z" fill="#A2C3DD"/>
</svg>
