<svg fill="none" height="20" viewBox="0 0 20 20" width="20" xmlns="http://www.w3.org/2000/svg"><path d="m6.8228 3.68269c-.34883.15061-.68809.33009-.99865.53718-.3112.2165-.60327.46187-.8762.72544-.27294.27298-.51846.56541-.72571.88608-.20725.31127-.38645.64073-.53695.99905-.11287.25416.00957.54659.26401.65013.25445.11296.54651-.00941.65939-.26356.12244-.29244.26401-.56542.45213-.82899.1792-.26356.37688-.50893.60327-.72543.21682-.22592.4617-.43364.72571-.60307.26401-.17885.53694-.33009.82901-.45246.25445-.10354.36732-.40539.26401-.65954-.10394-.24475-.40494-.36774-.65938-.26357zm12.9371 14.88901-3.6183-3.6184c.5841-.6972 1.0649-1.4891 1.4131-2.3369.4426-1.0838.697-2.2617.697-3.49606 0-1.20613-.2448-2.37462-.6785-3.43955l-.0191-.04707c-.4521-1.09318-1.1122-2.08281-1.9412-2.92121l-.0376-.03765c-.8386-.83839-1.8468-1.51739-2.959-1.978638-1.0834-.452457-2.2613-.69719856-3.49585-.69719856-2.51575 0-4.79618 1.01787656-6.45421 2.67646656-.82901.82898-1.5171 1.83744-1.969229 2.95886-.452133 1.08376-.697011 2.26166-.697011 3.48662 0 1.21553.235313 2.38403.678517 3.44893l.019131.0471c.452132 1.112 1.140212 2.1205 1.969232 2.9589h.00956c.83859.8384 1.8468 1.5174 2.95895 1.9786 1.08346.443 2.25174.6878 3.48633.6878 1.23458 0 2.41248-.2448 3.49588-.6878.8482-.3489 1.6396-.829 2.3366-1.4132l3.6183 3.6184c.3297.3207.8577.3207 1.1874-.0094.3201-.3207.3201-.8573 0-1.1779zm-5.3612-4.1838-.0191.0189c-.6785.6783-1.498 1.2249-2.4124 1.6021-.8667.3677-1.8373.5654-2.84548.5654-1.01777 0-1.96923-.1977-2.84543-.5654-.90427-.3772-1.73392-.9332-2.41244-1.6116l-.00957-.0094h.00957c-.69701-.6878-1.25309-1.508-1.62041-2.4122l-.01913-.0471c-.35775-.8572-.55608-1.8092-.55608-2.80826 0-1.00846.20726-1.97864.57458-2.8459.36731-.91433.92339-1.72448 1.6204-2.42168 1.33791-1.34734 3.20383-2.17695 5.25787-2.17695 1.01782 0 1.97882.19768 2.85502.55601l-.0096.00941c.9139.36774 1.7429.92374 2.4309 1.61153l.0281.03765c.6785.67837 1.2059 1.48916 1.5924 2.38403l.0191.03765c.3392.86726.5369 1.8092.5369 2.80825 0 1.01786-.1977 1.97866-.556 2.85536-.3865.9143-.9426 1.7339-1.6205 2.4122zm.132-5.76708c-.2825 0-.5089.22591-.5089.49952 0 .64072-.1128 1.28146-.3673 1.88446l-.0095.0189c-.2354.5654-.5937 1.1026-1.0554 1.5644-.4713.4713-1.0083.829-1.5828 1.065-.6033.2447-1.23462.3677-1.88444.3677-.27294 0-.49932.2259-.49932.5089 0 .273.22638.4996.49932.4996.7729 0 1.54514-.1506 2.27084-.4525.697-.2918 1.3379-.716 1.9125-1.2814.5561-.556.9802-1.1967 1.2627-1.8939l.0095-.0189c.3017-.716.4522-1.48913.4522-2.26163 0-.27298-.2169-.49953-.4994-.49953z" fill="#5d6071"/></svg>