<svg width="16" height="16" viewBox="0 0 16 16" fill="none" xmlns="http://www.w3.org/2000/svg">
<path fill-rule="evenodd" clip-rule="evenodd" d="M13.0018 8.00004C13.0018 8.22671 12.9818 8.44004 12.9552 8.65337L14.3618 9.75337C14.4885 9.85337 14.5218 10.0334 14.4418 10.18L13.1085 12.4867C13.0485 12.5934 12.9352 12.6534 12.8218 12.6534C12.7818 12.6534 12.7418 12.6467 12.7018 12.6334L11.0418 11.9667C10.6952 12.2267 10.3218 12.4534 9.91518 12.62L9.66185 14.3867C9.64185 14.5467 9.50185 14.6667 9.33518 14.6667H6.66851C6.50185 14.6667 6.36185 14.5467 6.34185 14.3867L6.08851 12.62C5.68185 12.4534 5.30851 12.2334 4.96185 11.9667L3.30185 12.6334C3.26851 12.6467 3.22851 12.6534 3.18851 12.6534C3.06851 12.6534 2.95518 12.5934 2.89518 12.4867L1.56185 10.18C1.48185 10.0334 1.51518 9.85337 1.64185 9.75337L3.04851 8.65337C3.02185 8.44004 3.00185 8.22004 3.00185 8.00004C3.00185 7.78004 3.02185 7.56004 3.04851 7.34671L1.64185 6.24671C1.51518 6.14671 1.47518 5.96671 1.56185 5.82004L2.89518 3.51337C2.95518 3.40671 3.06851 3.34671 3.18185 3.34671C3.22185 3.34671 3.26185 3.35337 3.30185 3.36671L4.96185 4.03337C5.30851 3.77337 5.68185 3.54671 6.08851 3.38004L6.34185 1.61337C6.36185 1.45337 6.50185 1.33337 6.66851 1.33337H9.33518C9.50185 1.33337 9.64185 1.45337 9.66185 1.61337L9.91518 3.38004C10.3218 3.54671 10.6952 3.76671 11.0418 4.03337L12.7018 3.36671C12.7352 3.35337 12.7752 3.34671 12.8152 3.34671C12.9352 3.34671 13.0485 3.40671 13.1085 3.51337L14.4418 5.82004C14.5218 5.96671 14.4885 6.14671 14.3618 6.24671L12.9552 7.34671C12.9818 7.56004 13.0018 7.77337 13.0018 8.00004ZM11.6685 8.00004C11.6685 7.86004 11.6618 7.72004 11.6352 7.51337L11.5418 6.76004L12.1352 6.29337L12.8485 5.72671L12.3818 4.92004L11.5352 5.26004L10.8285 5.54671L10.2218 5.08004C9.95518 4.88004 9.68851 4.72671 9.40185 4.60671L8.69518 4.32004L8.58851 3.56671L8.46185 2.66671H7.53518L7.40185 3.56671L7.29518 4.32004L6.58851 4.60671C6.31518 4.72004 6.04185 4.88004 5.75518 5.09337L5.15518 5.54671L4.46185 5.26671L3.61518 4.92671L3.14851 5.73337L3.86851 6.29337L4.46185 6.76004L4.36851 7.51337C4.34851 7.71337 4.33518 7.86671 4.33518 8.00004C4.33518 8.13337 4.34851 8.28671 4.36851 8.49337L4.46185 9.24671L3.86851 9.71337L3.14851 10.2734L3.61518 11.08L4.46185 10.74L5.16851 10.4534L5.77518 10.92C6.04185 11.12 6.30851 11.2734 6.59518 11.3934L7.30185 11.68L7.40851 12.4334L7.53518 13.3334H8.46851L8.60185 12.4334L8.70851 11.68L9.41518 11.3934C9.68851 11.28 9.96185 11.12 10.2485 10.9067L10.8485 10.4534L11.5418 10.7334L12.3885 11.0734L12.8552 10.2667L12.1352 9.70671L11.5418 9.24004L11.6352 8.48671C11.6552 8.28671 11.6685 8.14004 11.6685 8.00004ZM8.00185 5.33337C6.52851 5.33337 5.33518 6.52671 5.33518 8.00004C5.33518 9.47337 6.52851 10.6667 8.00185 10.6667C9.47518 10.6667 10.6685 9.47337 10.6685 8.00004C10.6685 6.52671 9.47518 5.33337 8.00185 5.33337ZM6.66851 8.00004C6.66851 8.73337 7.26851 9.33337 8.00185 9.33337C8.73518 9.33337 9.33518 8.73337 9.33518 8.00004C9.33518 7.26671 8.73518 6.66671 8.00185 6.66671C7.26851 6.66671 6.66851 7.26671 6.66851 8.00004Z" fill="#A2C3DD"/>
</svg>
