<svg width="16" height="16" viewBox="0 0 16 16" fill="none" xmlns="http://www.w3.org/2000/svg">
<g clip-path="url(#clip0_4309_25074)">
<path d="M7.9987 1.33301C4.3187 1.33301 1.33203 4.31967 1.33203 7.99967C1.33203 11.6797 4.3187 14.6663 7.9987 14.6663C11.6787 14.6663 14.6654 11.6797 14.6654 7.99967C14.6654 4.31967 11.6787 1.33301 7.9987 1.33301ZM7.9987 13.333C5.0587 13.333 2.66536 10.9397 2.66536 7.99967C2.66536 5.05967 5.0587 2.66634 7.9987 2.66634C10.9387 2.66634 13.332 5.05967 13.332 7.99967C13.332 10.9397 10.9387 13.333 7.9987 13.333ZM11.0587 5.05301L6.66536 9.44634L4.9387 7.72634L3.9987 8.66634L6.66536 11.333L11.9987 5.99967L11.0587 5.05301Z" fill="#09090B"/>
</g>
<defs>
<clipPath id="clip0_4309_25074">
<rect width="16" height="16" fill="white"/>
</clipPath>
</defs>
</svg>
