<svg width="16" height="16" viewBox="0 0 16 16" fill="none" xmlns="http://www.w3.org/2000/svg">
<path fill-rule="evenodd" clip-rule="evenodd" d="M7.9987 1.33398C4.3187 1.33398 1.33203 4.32065 1.33203 8.00065C1.33203 11.6807 4.3187 14.6673 7.9987 14.6673C11.6787 14.6673 14.6654 11.6807 14.6654 8.00065C14.6654 4.32065 11.6787 1.33398 7.9987 1.33398ZM7.33203 4.66732V6.00065H8.66536V4.66732H7.33203ZM7.33203 7.33398V11.334H8.66536V7.33398H7.33203ZM2.66536 8.00065C2.66536 10.9407 5.0587 13.334 7.9987 13.334C10.9387 13.334 13.332 10.9407 13.332 8.00065C13.332 5.06065 10.9387 2.66732 7.9987 2.66732C5.0587 2.66732 2.66536 5.06065 2.66536 8.00065Z" fill="#A2C3DD"/>
</svg>
