<svg width="16" height="16" viewBox="0 0 16 16" fill="none" xmlns="http://www.w3.org/2000/svg">
<path fill-rule="evenodd" clip-rule="evenodd" d="M10.0013 7.99996C11.4746 7.99996 12.668 6.80663 12.668 5.33329C12.668 3.85996 11.4746 2.66663 10.0013 2.66663C8.52797 2.66663 7.33464 3.85996 7.33464 5.33329C7.33464 6.80663 8.52797 7.99996 10.0013 7.99996ZM10.0013 3.99996C10.7346 3.99996 11.3346 4.59996 11.3346 5.33329C11.3346 6.06663 10.7346 6.66663 10.0013 6.66663C9.26797 6.66663 8.66797 6.06663 8.66797 5.33329C8.66797 4.59996 9.26797 3.99996 10.0013 3.99996ZM4.66797 12C4.66797 10.2266 8.2213 9.33329 10.0013 9.33329C11.7813 9.33329 15.3346 10.2266 15.3346 12V13.3333H4.66797V12ZM6.0013 12C6.14797 11.52 8.20797 10.6666 10.0013 10.6666C11.8013 10.6666 13.868 11.5266 14.0013 12H6.0013ZM4.0013 7.99996V9.99996H2.66797V7.99996H0.667969V6.66663H2.66797V4.66663H4.0013V6.66663H6.0013V7.99996H4.0013Z" fill="#A2C3DD"/>
</svg>
