<svg width="386" height="275" viewBox="0 0 386 275" fill="none" xmlns="http://www.w3.org/2000/svg">
<path fill-rule="evenodd" clip-rule="evenodd" d="M55.3864 18.0248C52.4925 17.9435 49.5269 18.0248 46.8126 18.8444C39.4273 21.0773 35.9267 28.3837 37.0648 34.6972C38.203 41.0108 42.8848 46.5118 47.7425 51.5393C52.6003 56.5668 57.8637 61.5378 60.5277 67.5476C61.8562 70.5471 62.4773 73.9071 61.1273 76.9031C59.0449 81.5208 52.7654 84.0999 46.7372 84.6369C40.709 85.174 34.6557 84.1282 28.606 83.7784C26.0676 83.6336 23.4574 83.6159 21.0662 84.2907C18.4417 85.0256 16.2552 86.5271 14.2446 88.0923C6.38531 94.2256 0.0950274 102.603 1.12187 111.389C2.27078 121.363 12.5176 129.245 23.741 133.474C27.4571 134.888 31.3885 136.011 34.6593 138.011C43.2761 143.286 45.2113 153.178 44.3532 161.908C43.4951 170.638 40.5726 179.379 42.199 188.032C44.1127 198.097 52.5823 207.191 64.0068 211.438C74.1854 215.222 86.924 214.971 95.9609 209.633C100.366 207.025 103.698 203.404 106.595 199.659C110.898 194.128 114.452 188.072 117.169 181.64C118.429 178.641 119.614 175.415 122.555 173.331C124.35 172.048 126.676 171.331 128.978 170.773C135.914 169.091 143.221 168.632 150.222 167.134C157.223 165.636 164.249 162.841 168.055 157.849C173.441 150.783 170.927 141.731 170.952 133.421C170.996 114.463 184.994 97.4937 190.161 79.0123C191.848 72.9743 192.477 66.2933 188.707 60.9054C186.147 57.2487 181.828 54.6095 177.289 52.571C167.305 48.0875 155.956 46.0913 144.793 44.1482C129.279 41.4489 110.441 41.0991 98.4167 32.3654C86.8952 23.9992 71.1085 18.0248 55.3864 18.0248Z" fill="white"/>
<path opacity="0.2" fill-rule="evenodd" clip-rule="evenodd" d="M55.3864 18.0248C52.4925 17.9435 49.5269 18.0248 46.8126 18.8444C39.4273 21.0773 35.9267 28.3837 37.0648 34.6972C38.203 41.0108 42.8848 46.5118 47.7425 51.5393C52.6003 56.5668 57.8637 61.5378 60.5277 67.5476C61.8562 70.5471 62.4773 73.9071 61.1273 76.9031C59.0449 81.5208 52.7654 84.0999 46.7372 84.6369C40.709 85.174 34.6557 84.1282 28.606 83.7784C26.0676 83.6336 23.4574 83.6159 21.0662 84.2907C18.4417 85.0256 16.2552 86.5271 14.2446 88.0923C6.38531 94.2256 0.0950274 102.603 1.12187 111.389C2.27078 121.363 12.5176 129.245 23.741 133.474C27.4571 134.888 31.3885 136.011 34.6593 138.011C43.2761 143.286 45.2113 153.178 44.3532 161.908C43.4951 170.638 40.5726 179.379 42.199 188.032C44.1127 198.097 52.5823 207.191 64.0068 211.438C74.1854 215.222 86.924 214.971 95.9609 209.633C100.366 207.025 103.698 203.404 106.595 199.659C110.898 194.128 114.452 188.072 117.169 181.64C118.429 178.641 119.614 175.415 122.555 173.331C124.35 172.048 126.676 171.331 128.978 170.773C135.914 169.091 143.221 168.632 150.222 167.134C157.223 165.636 164.249 162.841 168.055 157.849C173.441 150.783 170.927 141.731 170.952 133.421C170.996 114.463 184.994 97.4937 190.161 79.0123C191.848 72.9743 192.477 66.2933 188.707 60.9054C186.147 57.2487 181.828 54.6095 177.289 52.571C167.305 48.0875 155.956 46.0913 144.793 44.1482C129.279 41.4489 110.441 41.0991 98.4167 32.3654C86.8952 23.9992 71.1085 18.0248 55.3864 18.0248Z" fill="#5C96C4"/>
<g opacity="0.5">
<path fill-rule="evenodd" clip-rule="evenodd" d="M10.2385 125.05C9.48999 126.17 8.87439 127.798 9.85376 129.694C11.7775 133.416 16.5345 132.651 18.8465 136.213C19.4643 137.201 19.8086 138.338 19.8434 139.507C19.9308 141.524 19.3152 143.112 18.9969 144.888C18.5806 146.982 18.9051 149.159 19.9134 151.035C21.0483 152.994 22.761 154.542 24.8102 155.463C26.6011 156.264 28.308 156.469 30.0219 156.859C32.1481 157.353 34.219 158.066 36.2025 158.986C37.1452 159.387 38.0319 159.911 38.8398 160.546C39.8252 161.423 40.7195 162.399 41.5086 163.46L48.9484 172.769C49.8937 174.024 50.9471 175.191 52.0964 176.257C53.3501 177.282 54.7277 178.141 56.1957 178.813C59.1654 180.313 62.2714 181.848 64.8492 181.674C67.4271 181.5 69.2179 178.98 67.9972 175.456C66.843 172.103 63.59 169.277 62.114 165.931C59.788 160.656 62.8345 156.714 60.8863 151.432C59.0184 146.356 53.7823 142.952 50.4384 138.316C48.0389 135.019 46.7028 131.183 44.5412 127.72C41.3932 122.757 36.7062 118.96 32.299 117.039C28.423 115.369 24.1787 114.773 20.0008 115.312C18.4058 115.489 16.8353 115.791 15.702 116.759C14.4988 117.787 14.6527 119.708 13.8692 121.073C12.9703 122.643 11.2564 123.533 10.2385 125.05Z" fill="#5C96C4"/>
<path d="M14.9062 117.91C14.9062 117.91 52.1505 153.2 67.17 180.677" stroke="#4D4F5D" stroke-width="2"/>
<path d="M10 129.911C10 129.911 24.883 126.979 35.184 138.737" stroke="#4D4F5D" stroke-width="2"/>
<path d="M20.5742 152.069C20.5742 152.069 37.0138 140.417 42.7011 147.195" stroke="#4D4F5D" stroke-width="2"/>
<path d="M32.2288 116.953C32.2288 116.953 30.4974 125.872 36.727 140.442" stroke="#4D4F5D" stroke-width="2"/>
<path d="M60.8665 151.57C60.8665 151.57 59.4114 157.42 47.7148 153.119" stroke="#4D4F5D" stroke-width="2"/>
<path d="M48.9961 172.032C48.9961 172.032 56.1351 163.67 52.8891 159.564" stroke="#4D4F5D" stroke-width="2"/>
</g>
<path fill-rule="evenodd" clip-rule="evenodd" d="M2.60368 83.1314C0.824755 85.2259 -0.84032 88.1248 0.46897 90.9847C2.98793 96.5982 12.3131 93.8517 15.6397 99.0789C16.6359 100.642 16.7711 102.552 16.5398 104.257C16.0915 107.591 14.4335 110.423 13.2879 113.471C12.1423 116.518 11.5481 120.204 13.1634 123.422C14.7182 126.537 17.995 128.504 21.1686 129.287C24.3422 130.07 27.5229 129.893 30.6929 129.996C34.459 130.143 38.1983 130.692 41.8468 131.633C43.4503 131.995 44.9854 132.61 46.3937 133.455C48.0126 134.486 49.3219 135.999 50.6027 137.488L61.9878 150.703C63.4999 152.475 65.044 154.247 66.919 155.547C69.0822 157.046 71.5442 157.808 73.9671 158.542C79.1794 160.129 84.6407 161.731 89.6217 160.643C94.6027 159.555 98.7831 154.814 97.5379 149.324C96.3531 144.097 91.0092 140.39 89.2089 135.269C86.3627 127.2 93.3894 119.715 91.2796 111.504C89.2588 103.629 80.3001 99.568 75.3191 92.9019C71.7612 88.1248 70.3594 82.1498 67.2499 77.0678C62.7599 69.732 54.9326 64.8733 47.1409 63.027C39.3492 61.1806 31.5112 62.0418 24.2034 63.8881C21.1081 64.6713 18.0127 65.6601 15.5578 67.6163C12.9499 69.6966 12.6511 72.8542 10.7512 75.3632C8.54885 78.2799 5.00168 80.2963 2.60368 83.1314Z" fill="#FF8000"/>
<path d="M14.1094 71C14.1094 71 75.1912 118.602 95.7438 160" stroke="#4D4F5D" stroke-width="2"/>
<path d="M1.01172 93.5164C1.01172 93.5164 30.9529 84.7276 47.372 100" stroke="#4D4F5D" stroke-width="2"/>
<path d="M16.125 126C16.125 126 50.7176 100.296 59.4618 110.32" stroke="#4D4F5D" stroke-width="2"/>
<path d="M47.8408 64C47.8408 64 41.3219 79.0801 49.3829 101" stroke="#4D4F5D" stroke-width="2"/>
<path d="M90.7075 113C90.7075 113 86.2185 122.663 65.5117 119.283" stroke="#4D4F5D" stroke-width="2"/>
<path d="M62.4844 150C62.4844 150 78.558 134.595 73.6444 129" stroke="#4D4F5D" stroke-width="2"/>
<path fill-rule="evenodd" clip-rule="evenodd" d="M220.21 275C311.773 275 385.999 255.077 385.999 230.5C385.999 205.923 311.773 186 220.21 186C128.648 186 54.4219 205.923 54.4219 230.5C54.4219 255.077 128.648 275 220.21 275Z" fill="#EEEEEE"/>
<path opacity="0.1" fill-rule="evenodd" clip-rule="evenodd" d="M220.21 275C311.773 275 385.999 255.077 385.999 230.5C385.999 205.923 311.773 186 220.21 186C128.648 186 54.4219 205.923 54.4219 230.5C54.4219 255.077 128.648 275 220.21 275Z" fill="#5C96C4"/>
<path fill-rule="evenodd" clip-rule="evenodd" d="M350.445 1C350.445 1 337.718 13.7415 344.904 32.6492C352.089 51.557 332.586 83 332.586 83C332.586 83 332.795 82.968 333.183 82.9004C359.321 78.2775 372.31 48.3494 357.776 26.1131C352.374 17.8488 347.937 8.15486 350.445 1Z" fill="#FF8000"/>
<path d="M350.752 1C350.752 1 343.443 16.6184 350.752 29.3599C358.062 42.1013 352.006 77.8614 332.586 83" stroke="#4D4F5D" stroke-width="2"/>
<path fill-rule="evenodd" clip-rule="evenodd" d="M371.892 53.1578C371.892 53.1578 357.512 50.8626 356.203 63.7806C354.895 76.6986 328.555 78.4897 328.555 78.4897L329.047 78.8175C350.795 93.1282 371.6 87.9349 368.435 68.9457C367.285 61.8662 367.38 54.7584 371.892 53.1578Z" fill="#5C96C4"/>
<path fill-rule="evenodd" clip-rule="evenodd" d="M371.892 53.1578C371.892 53.1578 357.512 50.8626 356.203 63.7806C354.895 76.6986 328.555 78.4897 328.555 78.4897L329.047 78.8175C350.795 93.1282 371.6 87.9349 368.435 68.9457C367.285 61.8662 367.38 54.7584 371.892 53.1578Z" fill="#FF8000"/>
<path d="M371.892 53C371.892 53 360.729 55.4806 361.647 65.6935C362.565 75.9065 345.073 88.1783 328.555 78.4508" stroke="#4D4F5D" stroke-width="2"/>
<path d="M88.4544 100C88.4544 100 83.9358 84.0259 89.303 72.2619C91.5834 67.3444 92.271 61.7889 91.2624 56.4297C90.7649 53.89 90.0452 51.403 89.1121 49" stroke="#4D4F5D" stroke-width="2"/>
<path fill-rule="evenodd" clip-rule="evenodd" d="M92.7189 41.491C92.7189 43.418 89.1915 49 89.1915 49C89.1915 49 85.6641 43.4145 85.6641 41.491C85.6641 39.563 87.2433 38 89.1915 38C91.1396 38 92.7189 39.563 92.7189 41.491Z" fill="#5C96C4"/>
<path fill-rule="evenodd" clip-rule="evenodd" d="M97.1631 53.5594C96.1985 55.1872 90.707 58 90.707 58C90.707 58 90.8067 51.3689 91.7713 49.741C92.3688 48.6238 93.4793 47.9558 94.6621 48.0023C95.8449 48.0487 96.9088 48.8021 97.4314 49.9634C97.954 51.1247 97.851 52.5061 97.1631 53.5594Z" fill="#5C96C4"/>
<path fill-rule="evenodd" clip-rule="evenodd" d="M97.7702 70.5397C96.0912 71.3887 89.6953 70.8033 89.6953 70.8033C89.6953 70.8033 93.0295 65.2848 94.7051 64.4358C95.7973 63.8215 97.1367 63.859 98.1933 64.5333C99.2499 65.2076 99.8535 66.4101 99.7651 67.6651C99.6767 68.92 98.9107 70.0251 97.7702 70.5431V70.5397Z" fill="#5C96C4"/>
<path fill-rule="evenodd" clip-rule="evenodd" d="M94.2885 85.5562C92.8341 86.5511 86.6758 87 86.6758 87C86.6758 87 88.9426 81.6799 90.397 80.6851C91.3323 79.9769 92.6128 79.803 93.7284 80.2326C94.844 80.6622 95.6137 81.6255 95.7308 82.739C95.848 83.8525 95.2936 84.9353 94.2885 85.5562Z" fill="#5C96C4"/>
<path fill-rule="evenodd" clip-rule="evenodd" d="M82.8218 59.2161C84.2298 60.5814 90.7033 62 90.7033 62C90.7033 62 89.1157 55.4899 87.7218 54.1246C86.8349 53.1685 85.4993 52.7826 84.2459 53.1202C82.9926 53.4578 82.0246 54.4643 81.7269 55.7395C81.4292 57.0147 81.8499 58.3519 82.8218 59.2196V59.2161Z" fill="#5C96C4"/>
<path fill-rule="evenodd" clip-rule="evenodd" d="M81.4068 73.5309C83.1303 74.3961 89.6955 73.7995 89.6955 73.7995C89.6955 73.7995 86.2731 68.1754 84.5531 67.3102C82.8467 66.5407 80.8359 67.2497 79.9925 68.9182C79.1491 70.5866 79.7727 72.622 81.4068 73.5344V73.5309Z" fill="#5C96C4"/>
<path fill-rule="evenodd" clip-rule="evenodd" d="M79.8465 90.5193C81.3431 91.5396 87.6799 92 87.6799 92C87.6799 92 85.3474 86.5436 83.8508 85.5233C82.3552 84.6024 80.3396 84.927 79.2703 86.261C78.2011 87.5951 78.4546 89.4688 79.8465 90.5193Z" fill="#5C96C4"/>
<path fill-rule="evenodd" clip-rule="evenodd" d="M351.912 193.321H382.282C382.998 193.316 383.688 193.593 384.196 194.092C384.705 194.592 384.991 195.271 384.991 195.98V198.123C384.991 206.339 378.257 213 369.951 213H79.5402C71.2337 213 64.5 206.339 64.5 198.123V195.98C64.5 194.512 65.7032 193.321 67.1875 193.321H98.6313C97.9285 191.933 97.562 190.401 97.5606 188.848V52.0582C97.5606 46.5032 102.113 42 107.729 42H342.815C348.428 42 352.979 46.4989 352.983 52.0511V188.848C352.982 190.401 352.615 191.933 351.912 193.321ZM192.555 198.902L195.16 201.829H254.311L257.195 198.902H192.555Z" fill="url(#paint0_linear_920_62353)"/>
<rect x="100.785" y="42" width="249.943" height="154" rx="23.26" fill="#4D4F5D"/>
<rect x="105.82" y="65" width="238.856" height="126" fill="#F1F1F4"/>
<path fill-rule="evenodd" clip-rule="evenodd" d="M224.746 57C225.859 57 226.762 56.1046 226.762 55C226.762 53.8954 225.859 53 224.746 53C223.633 53 222.73 53.8954 222.73 55C222.73 56.1046 223.633 57 224.746 57Z" fill="white"/>
<path fill-rule="evenodd" clip-rule="evenodd" d="M262.38 191L254.166 199.649H196.308L188.893 191H71.1599C69.7081 191 68.5312 192.21 68.5312 193.702V195.883C68.5312 199.895 70.0832 203.743 72.8452 206.579C75.6073 209.414 79.3527 211.005 83.2564 211H367.26C375.383 211 381.967 204.232 381.967 195.883V193.702C381.967 192.21 380.79 191 379.339 191L262.38 191Z" fill="#4D4F5D"/>
<rect x="120.938" y="74" width="65.5091" height="49" fill="white"/>
<rect opacity="0.2" x="126.984" y="79" width="21.1645" height="12" fill="#5C96C4"/>
<rect x="153.191" y="80" width="25.1958" height="3" fill="#E6E8EC"/>
<rect x="154.199" y="85" width="19.1488" height="3" fill="#E6E8EC"/>
<rect x="153.191" y="89" width="25.1958" height="3" fill="#E6E8EC"/>
<rect x="126.984" y="93" width="53.4151" height="3" fill="#E6E8EC"/>
<rect x="126.984" y="99" width="53.4151" height="3" fill="#E6E8EC"/>
<rect x="126.984" y="102" width="53.4151" height="3" fill="#E6E8EC"/>
<rect x="126.984" y="106" width="48.376" height="3" fill="#E6E8EC"/>
<rect x="126.984" y="111" width="53.4151" height="3" fill="#E6E8EC"/>
<rect x="126.984" y="118" width="53.4151" height="3" fill="#E6E8EC"/>
<rect x="192.496" y="74" width="65.5091" height="49" fill="white"/>
<rect opacity="0.2" x="198.543" y="79" width="21.1645" height="12" fill="#5C96C4"/>
<rect x="225.754" y="80" width="25.1958" height="3" fill="#E6E8EC"/>
<rect x="225.754" y="85" width="19.1488" height="3" fill="#E6E8EC"/>
<rect x="225.754" y="89" width="25.1958" height="3" fill="#E6E8EC"/>
<rect x="198.543" y="93" width="53.4151" height="3" fill="#E6E8EC"/>
<rect x="198.543" y="99" width="53.4151" height="3" fill="#E6E8EC"/>
<rect x="198.543" y="102" width="53.4151" height="3" fill="#E6E8EC"/>
<rect x="198.543" y="106" width="48.376" height="3" fill="#E6E8EC"/>
<rect x="198.543" y="111" width="53.4151" height="3" fill="#E6E8EC"/>
<rect x="198.543" y="118" width="53.4151" height="3" fill="#E6E8EC"/>
<rect x="264.055" y="74" width="65.5091" height="49" fill="white"/>
<rect opacity="0.2" x="270.102" y="79" width="21.1645" height="12" fill="#5C96C4"/>
<rect x="297.312" y="80" width="25.1958" height="3" fill="#E6E8EC"/>
<rect x="297.312" y="85" width="19.1488" height="3" fill="#E6E8EC"/>
<rect x="297.312" y="89" width="25.1958" height="3" fill="#E6E8EC"/>
<rect x="270.102" y="93" width="53.4151" height="3" fill="#E6E8EC"/>
<rect x="270.102" y="99" width="53.4151" height="3" fill="#E6E8EC"/>
<rect x="270.102" y="102" width="53.4151" height="3" fill="#E6E8EC"/>
<rect x="271.105" y="106" width="48.376" height="3" fill="#E6E8EC"/>
<rect x="270.102" y="111" width="53.4151" height="3" fill="#E6E8EC"/>
<rect x="270.102" y="118" width="53.4151" height="3" fill="#E6E8EC"/>
<rect x="120.938" y="130" width="65.5091" height="49" fill="white"/>
<rect opacity="0.2" x="126.984" y="135" width="21.1645" height="12" fill="#5C96C4"/>
<rect x="153.191" y="134" width="25.1958" height="3" fill="#E6E8EC"/>
<rect x="154.199" y="139" width="19.1488" height="3" fill="#E6E8EC"/>
<rect x="153.191" y="143" width="25.1958" height="3" fill="#E6E8EC"/>
<rect x="126.984" y="149" width="53.4151" height="3" fill="#E6E8EC"/>
<rect x="126.984" y="153" width="53.4151" height="3" fill="#E6E8EC"/>
<rect x="126.984" y="158" width="53.4151" height="3" fill="#E6E8EC"/>
<rect x="126.984" y="161" width="48.376" height="3" fill="#E6E8EC"/>
<rect x="126.984" y="168" width="53.4151" height="3" fill="#E6E8EC"/>
<rect x="126.984" y="173" width="53.4151" height="3" fill="#E6E8EC"/>
<rect x="192.496" y="130" width="65.5091" height="49" fill="white"/>
<rect opacity="0.2" x="198.543" y="135" width="21.1645" height="12" fill="#5C96C4"/>
<rect x="225.754" y="134" width="25.1958" height="3" fill="#E6E8EC"/>
<rect x="225.754" y="139" width="19.1488" height="3" fill="#E6E8EC"/>
<rect x="225.754" y="143" width="25.1958" height="3" fill="#E6E8EC"/>
<rect x="198.543" y="149" width="53.4151" height="3" fill="#E6E8EC"/>
<rect x="198.543" y="153" width="53.4151" height="3" fill="#E6E8EC"/>
<rect x="198.543" y="158" width="53.4151" height="3" fill="#E6E8EC"/>
<rect x="198.543" y="161" width="48.376" height="3" fill="#E6E8EC"/>
<rect x="198.543" y="168" width="53.4151" height="3" fill="#E6E8EC"/>
<rect x="198.543" y="173" width="53.4151" height="3" fill="#E6E8EC"/>
<rect opacity="0.1" x="264.055" y="130" width="65.5091" height="49" fill="#09090B"/>
<path fill-rule="evenodd" clip-rule="evenodd" d="M158.936 91H56.7455C54.2605 90.9953 51.8756 91.9586 50.1164 93.6776C48.3572 95.3965 47.3681 97.7301 47.3672 100.164V238.843C47.3701 241.275 48.3595 243.606 50.1177 245.324C51.8759 247.041 54.2588 248.004 56.7419 248H158.932C161.416 248.004 163.798 247.041 165.557 245.324C167.315 243.606 168.304 241.275 168.307 238.843V100.164C168.306 97.7313 167.318 95.3988 165.56 93.6801C163.803 91.9613 161.42 90.9972 158.936 91Z" fill="url(#paint1_linear_920_62353)"/>
<rect x="49.3828" y="93" width="116.909" height="153" rx="20" fill="#4D4F5D"/>
<rect x="55.4297" y="107" width="103.807" height="124" fill="#F1F1F4"/>
<path fill-rule="evenodd" clip-rule="evenodd" d="M106.328 103C107.163 103 107.84 102.328 107.84 101.5C107.84 100.672 107.163 100 106.328 100C105.493 100 104.816 100.672 104.816 101.5C104.816 102.328 105.493 103 106.328 103Z" fill="white"/>
<path fill-rule="evenodd" clip-rule="evenodd" d="M106.324 244C108.829 244 110.86 241.985 110.86 239.5C110.86 237.015 108.829 235 106.324 235C103.82 235 101.789 237.015 101.789 239.5C101.789 241.985 103.82 244 106.324 244Z" fill="white"/>
<rect x="60.4688" y="121" width="29.2272" height="21" fill="white"/>
<rect opacity="0.2" x="62.4844" y="123" width="9.07049" height="5" fill="#5C96C4"/>
<rect x="75.5898" y="121" width="12.094" height="2" fill="#E6E8EC"/>
<rect x="74.5781" y="124" width="7.05484" height="2" fill="#E6E8EC"/>
<rect x="75.5898" y="127" width="12.094" height="2" fill="#E6E8EC"/>
<rect x="64.5" y="128" width="23.1802" height="2" fill="#E6E8EC"/>
<rect x="64.5" y="130" width="23.1802" height="2" fill="#E6E8EC"/>
<rect x="64.5" y="133" width="23.1802" height="2" fill="#E6E8EC"/>
<rect x="63.4961" y="135" width="21.1645" height="2" fill="#E6E8EC"/>
<rect x="64.5" y="137" width="23.1802" height="2" fill="#E6E8EC"/>
<rect x="64.5" y="140" width="23.1802" height="2" fill="#E6E8EC"/>
<rect x="92.7227" y="121" width="29.2271" height="21" fill="white"/>
<rect opacity="0.2" x="95.7422" y="123" width="9.07049" height="5" fill="#5C96C4"/>
<rect x="108.848" y="121" width="12.094" height="2" fill="#E6E8EC"/>
<rect x="107.836" y="124" width="7.05482" height="2" fill="#E6E8EC"/>
<rect x="108.848" y="127" width="12.094" height="2" fill="#E6E8EC"/>
<rect x="96.7539" y="128" width="23.1802" height="2" fill="#E6E8EC"/>
<rect x="96.7539" y="130" width="23.1802" height="2" fill="#E6E8EC"/>
<rect x="96.7539" y="133" width="23.1802" height="2" fill="#E6E8EC"/>
<rect x="97.7578" y="135" width="21.1645" height="2" fill="#E6E8EC"/>
<rect x="96.7539" y="137" width="23.1802" height="2" fill="#E6E8EC"/>
<rect x="96.7539" y="140" width="23.1802" height="2" fill="#E6E8EC"/>
<rect x="125.98" y="121" width="29.2271" height="21" fill="white"/>
<rect opacity="0.2" x="129" y="123" width="9.07051" height="5" fill="#5C96C4"/>
<rect x="141.098" y="121" width="12.094" height="2" fill="#E6E8EC"/>
<rect x="140.09" y="124" width="7.05484" height="2" fill="#E6E8EC"/>
<rect x="141.098" y="127" width="12.094" height="2" fill="#E6E8EC"/>
<rect x="129" y="128" width="23.1802" height="2" fill="#E6E8EC"/>
<rect x="129" y="130" width="23.1802" height="2" fill="#E6E8EC"/>
<rect x="129" y="133" width="23.1802" height="2" fill="#E6E8EC"/>
<rect x="129" y="135" width="21.1645" height="2" fill="#E6E8EC"/>
<rect x="129" y="137" width="23.1802" height="2" fill="#E6E8EC"/>
<rect x="129" y="140" width="23.1802" height="2" fill="#E6E8EC"/>
<rect x="60.4688" y="146" width="29.2272" height="21" fill="white"/>
<rect opacity="0.2" x="62.4844" y="148" width="9.07049" height="5" fill="#5C96C4"/>
<rect x="75.5898" y="147" width="12.094" height="2" fill="#E6E8EC"/>
<rect x="74.5781" y="150" width="7.05484" height="2" fill="#E6E8EC"/>
<rect x="75.5898" y="151" width="12.094" height="2" fill="#E6E8EC"/>
<rect x="64.5" y="153" width="23.1802" height="2" fill="#E6E8EC"/>
<rect x="64.5" y="156" width="23.1802" height="2" fill="#E6E8EC"/>
<rect x="64.5" y="159" width="23.1802" height="2" fill="#E6E8EC"/>
<rect x="63.4961" y="160" width="21.1645" height="2" fill="#E6E8EC"/>
<rect x="64.5" y="161" width="23.1802" height="2" fill="#E6E8EC"/>
<rect x="64.5" y="164" width="23.1802" height="2" fill="#E6E8EC"/>
<rect x="92.7227" y="146" width="29.2271" height="21" fill="white"/>
<rect opacity="0.2" x="95.7422" y="148" width="9.07049" height="5" fill="#5C96C4"/>
<rect x="108.848" y="147" width="12.094" height="2" fill="#E6E8EC"/>
<rect x="107.836" y="150" width="7.05482" height="2" fill="#E6E8EC"/>
<rect x="108.848" y="151" width="12.094" height="2" fill="#E6E8EC"/>
<rect x="96.7539" y="153" width="23.1802" height="2" fill="#E6E8EC"/>
<rect x="96.7539" y="156" width="23.1802" height="2" fill="#E6E8EC"/>
<rect x="96.7539" y="159" width="23.1802" height="2" fill="#E6E8EC"/>
<rect x="97.7578" y="160" width="21.1645" height="2" fill="#E6E8EC"/>
<rect x="96.7539" y="161" width="23.1802" height="2" fill="#E6E8EC"/>
<rect x="96.7539" y="164" width="23.1802" height="2" fill="#E6E8EC"/>
<rect x="125.98" y="146" width="29.2271" height="21" fill="white"/>
<rect opacity="0.2" x="129" y="148" width="9.07051" height="5" fill="#5C96C4"/>
<rect x="141.098" y="147" width="12.094" height="2" fill="#E6E8EC"/>
<rect x="140.09" y="150" width="7.05484" height="2" fill="#E6E8EC"/>
<rect x="141.098" y="151" width="12.094" height="2" fill="#E6E8EC"/>
<rect x="129" y="153" width="23.1802" height="2" fill="#E6E8EC"/>
<rect x="129" y="156" width="23.1802" height="2" fill="#E6E8EC"/>
<rect x="129" y="159" width="23.1802" height="2" fill="#E6E8EC"/>
<rect x="129" y="160" width="21.1645" height="2" fill="#E6E8EC"/>
<rect x="129" y="161" width="23.1802" height="2" fill="#E6E8EC"/>
<rect x="129" y="164" width="23.1802" height="2" fill="#E6E8EC"/>
<rect x="60.4688" y="172" width="29.2272" height="21" fill="white"/>
<rect opacity="0.2" x="62.4844" y="174" width="9.07049" height="5" fill="#5C96C4"/>
<rect x="75.5898" y="174" width="12.094" height="2" fill="#E6E8EC"/>
<rect x="74.5781" y="176" width="7.05484" height="2" fill="#E6E8EC"/>
<rect x="75.5898" y="178" width="12.094" height="2" fill="#E6E8EC"/>
<rect x="64.5" y="180" width="23.1802" height="2" fill="#E6E8EC"/>
<rect x="64.5" y="181" width="23.1802" height="2" fill="#E6E8EC"/>
<rect x="64.5" y="183" width="23.1802" height="2" fill="#E6E8EC"/>
<rect x="63.4961" y="186" width="21.1645" height="2" fill="#E6E8EC"/>
<rect x="64.5" y="189" width="23.1802" height="2" fill="#E6E8EC"/>
<rect x="64.5" y="190" width="23.1802" height="2" fill="#E6E8EC"/>
<rect x="92.7227" y="172" width="29.2271" height="21" fill="white"/>
<rect opacity="0.2" x="95.7422" y="174" width="9.07049" height="5" fill="#5C96C4"/>
<rect x="108.848" y="174" width="12.094" height="2" fill="#E6E8EC"/>
<rect x="107.836" y="176" width="7.05482" height="2" fill="#E6E8EC"/>
<rect x="108.848" y="178" width="12.094" height="2" fill="#E6E8EC"/>
<rect x="96.7539" y="180" width="23.1802" height="2" fill="#E6E8EC"/>
<rect x="96.7539" y="181" width="23.1802" height="2" fill="#E6E8EC"/>
<rect x="96.7539" y="183" width="23.1802" height="2" fill="#E6E8EC"/>
<rect x="97.7578" y="186" width="21.1645" height="2" fill="#E6E8EC"/>
<rect x="96.7539" y="189" width="23.1802" height="2" fill="#E6E8EC"/>
<rect x="96.7539" y="190" width="23.1802" height="2" fill="#E6E8EC"/>
<rect x="125.98" y="172" width="29.2271" height="21" fill="white"/>
<rect opacity="0.2" x="129" y="174" width="9.07051" height="5" fill="#5C96C4"/>
<rect x="141.098" y="174" width="12.094" height="2" fill="#E6E8EC"/>
<rect x="140.09" y="176" width="7.05484" height="2" fill="#E6E8EC"/>
<rect x="141.098" y="178" width="12.094" height="2" fill="#E6E8EC"/>
<rect x="129" y="180" width="23.1802" height="2" fill="#E6E8EC"/>
<rect x="129" y="181" width="23.1802" height="2" fill="#E6E8EC"/>
<rect x="129" y="183" width="23.1802" height="2" fill="#E6E8EC"/>
<rect x="129" y="186" width="21.1645" height="2" fill="#E6E8EC"/>
<rect x="129" y="189" width="23.1802" height="2" fill="#E6E8EC"/>
<rect x="129" y="190" width="23.1802" height="2" fill="#E6E8EC"/>
<rect x="60.4688" y="197" width="29.2272" height="21" fill="white"/>
<rect opacity="0.2" x="62.4844" y="198" width="9.07049" height="5" fill="#5C96C4"/>
<rect x="75.5898" y="198" width="12.094" height="2" fill="#E6E8EC"/>
<rect x="74.5781" y="200" width="7.05484" height="2" fill="#E6E8EC"/>
<rect x="75.5898" y="203" width="12.094" height="2" fill="#E6E8EC"/>
<rect x="64.5" y="205" width="23.1802" height="2" fill="#E6E8EC"/>
<rect x="64.5" y="208" width="23.1802" height="2" fill="#E6E8EC"/>
<rect x="64.5" y="209" width="23.1802" height="2" fill="#E6E8EC"/>
<rect x="63.4961" y="212" width="21.1645" height="2" fill="#E6E8EC"/>
<rect x="64.5" y="214" width="23.1802" height="2" fill="#E6E8EC"/>
<rect x="64.5" y="215" width="23.1802" height="2" fill="#E6E8EC"/>
<rect x="92.7227" y="197" width="29.2271" height="21" fill="white"/>
<rect opacity="0.2" x="95.7422" y="198" width="9.07049" height="5" fill="#5C96C4"/>
<rect x="108.848" y="198" width="12.094" height="2" fill="#E6E8EC"/>
<rect x="107.836" y="200" width="7.05482" height="2" fill="#E6E8EC"/>
<rect x="108.848" y="203" width="12.094" height="2" fill="#E6E8EC"/>
<rect x="96.7539" y="205" width="23.1802" height="2" fill="#E6E8EC"/>
<rect x="96.7539" y="208" width="23.1802" height="2" fill="#E6E8EC"/>
<rect x="96.7539" y="209" width="23.1802" height="2" fill="#E6E8EC"/>
<rect x="97.7578" y="212" width="21.1645" height="2" fill="#E6E8EC"/>
<rect x="96.7539" y="214" width="23.1802" height="2" fill="#E6E8EC"/>
<rect x="96.7539" y="215" width="23.1802" height="2" fill="#E6E8EC"/>
<rect opacity="0.1" x="125.98" y="197" width="29.2271" height="21" fill="#09090B"/>
<path fill-rule="evenodd" clip-rule="evenodd" d="M81.505 139H29.3556C27.9878 138.997 26.6749 139.527 25.7057 140.473C24.7365 141.419 24.1904 142.703 24.1875 144.043V255.957C24.1904 257.297 24.7365 258.581 25.7057 259.527C26.6749 260.473 27.9878 261.003 29.3556 261H81.505C82.8728 261.003 84.1857 260.473 85.1549 259.527C86.1242 258.581 86.6703 257.297 86.6731 255.957V144.047C86.6712 142.706 86.1255 141.421 85.1562 140.474C84.1869 139.527 82.8734 138.997 81.505 139Z" fill="url(#paint2_linear_920_62353)"/>
<rect x="26.2031" y="140" width="60.47" height="121" rx="11" fill="#4D4F5D"/>
<rect x="29.2266" y="150" width="52.4073" height="99" fill="#F1F1F4"/>
<path fill-rule="evenodd" clip-rule="evenodd" d="M49.8867 145C50.165 145 50.3906 144.776 50.3906 144.5C50.3906 144.224 50.165 144 49.8867 144C49.6084 144 49.3828 144.224 49.3828 144.5C49.3828 144.776 49.6084 145 49.8867 145Z" fill="white"/>
<rect x="53.4141" y="144" width="10.0783" height="1" rx="0.5" fill="white"/>
<path fill-rule="evenodd" clip-rule="evenodd" d="M55.4297 257C57.0996 257 58.4532 255.657 58.4532 254C58.4532 252.343 57.0996 251 55.4297 251C53.7599 251 52.4062 252.343 52.4062 254C52.4062 255.657 53.7599 257 55.4297 257Z" fill="white"/>
<rect opacity="0.1" x="36.2852" y="156" width="36.282" height="27" fill="#09090B"/>
<rect x="36.2852" y="186" width="36.282" height="27" fill="white"/>
<rect opacity="0.2" x="40.3125" y="188" width="12.094" height="6" fill="#5C96C4"/>
<rect x="55.4297" y="189" width="14.1097" height="2" fill="#E6E8EC"/>
<rect x="55.4297" y="190" width="9.0705" height="2" fill="#E6E8EC"/>
<rect x="55.4297" y="193" width="14.1097" height="2" fill="#E6E8EC"/>
<rect x="40.3125" y="195" width="28.2193" height="2" fill="#E6E8EC"/>
<rect x="40.3125" y="198" width="28.2193" height="2" fill="#E6E8EC"/>
<rect x="40.3125" y="202" width="28.2193" height="2" fill="#E6E8EC"/>
<rect x="40.3125" y="204" width="25.1958" height="2" fill="#E6E8EC"/>
<rect x="40.3125" y="207" width="28.2193" height="2" fill="#E6E8EC"/>
<rect x="40.3125" y="209" width="28.2193" height="2" fill="#E6E8EC"/>
<rect x="36.2852" y="216" width="36.282" height="27" fill="white"/>
<rect opacity="0.2" x="40.3125" y="218" width="12.094" height="6" fill="#5C96C4"/>
<rect x="55.4297" y="218" width="14.1097" height="2" fill="#E6E8EC"/>
<rect x="55.4297" y="220" width="9.0705" height="2" fill="#E6E8EC"/>
<rect x="55.4297" y="222" width="14.1097" height="2" fill="#E6E8EC"/>
<rect x="40.3125" y="226" width="28.2193" height="2" fill="#E6E8EC"/>
<rect x="40.3125" y="228" width="28.2193" height="2" fill="#E6E8EC"/>
<rect x="40.3125" y="231" width="28.2193" height="2" fill="#E6E8EC"/>
<rect x="40.3125" y="232" width="25.1958" height="2" fill="#E6E8EC"/>
<rect x="40.3125" y="237" width="28.2193" height="2" fill="#E6E8EC"/>
<rect x="40.3125" y="240" width="28.2193" height="2" fill="#E6E8EC"/>
<path fill-rule="evenodd" clip-rule="evenodd" d="M161.017 230.01C161.017 230.01 157.082 228.417 153.979 227.223C150.876 226.03 152.738 230.01 152.738 230.01C152.738 230.01 157.914 231.403 157.914 231.603C157.914 231.803 162.262 232 162.262 232L161.017 230.01Z" fill="#F7C4A7"/>
<path opacity="0.05" fill-rule="evenodd" clip-rule="evenodd" d="M161.017 230.01C161.017 230.01 157.082 228.417 153.979 227.223C150.876 226.03 152.738 230.01 152.738 230.01C152.738 230.01 157.914 231.403 157.914 231.603C157.914 231.803 162.262 232 162.262 232L161.017 230.01Z" fill="#09090B"/>
<rect x="136.059" y="211" width="33.2585" height="24" fill="url(#paint3_linear_920_62353)"/>
<rect x="138.074" y="212" width="29.2271" height="21" fill="white"/>
<rect opacity="0.2" x="142.105" y="215" width="9.07048" height="5" fill="#5C96C4"/>
<rect x="153.191" y="214" width="12.094" height="2" fill="#E6E8EC"/>
<rect x="154.199" y="215" width="7.05482" height="2" fill="#E6E8EC"/>
<rect x="153.191" y="217" width="12.094" height="2" fill="#E6E8EC"/>
<rect x="141.098" y="220" width="23.1802" height="2" fill="#E6E8EC"/>
<rect x="141.098" y="221" width="23.1802" height="2" fill="#E6E8EC"/>
<rect x="141.098" y="223" width="23.1802" height="2" fill="#E6E8EC"/>
<rect x="141.098" y="226" width="21.1645" height="2" fill="#E6E8EC"/>
<rect x="141.098" y="228" width="23.1802" height="2" fill="#E6E8EC"/>
<rect x="141.098" y="230" width="23.1802" height="2" fill="#E6E8EC"/>
<path fill-rule="evenodd" clip-rule="evenodd" d="M135.239 259C135.239 259.036 135.239 259.071 135.217 259.101C135.062 259.714 134.942 260.35 134.859 261C134.909 260.716 134.97 260.408 135.042 260.142C135.133 259.775 135.199 259.392 135.239 259Z" fill="#DDDBE2"/>
<path fill-rule="evenodd" clip-rule="evenodd" d="M111.542 260.207C111.309 260.271 111.075 260.571 110.863 261H110.936C111.126 260.95 111.462 260.579 111.871 260C111.779 260.093 111.667 260.164 111.542 260.207Z" fill="#DDDBE2"/>
<path opacity="0.1" fill-rule="evenodd" clip-rule="evenodd" d="M63.2201 180.901L65.5079 181V177.358L62.4844 177C63.5476 177.927 63.5124 179.536 63.2201 180.901Z" fill="#09090B"/>
<g opacity="0.1">
<path fill-rule="evenodd" clip-rule="evenodd" d="M76.8793 181.942C83.843 182.1 90.0158 175.475 90.0158 175.475C90.2024 175.732 90.3385 176.022 90.4167 176.33C88.6107 178.022 83.5541 182.215 77.9882 182.078C71.0245 181.92 62.793 182.865 62.793 182.865C62.793 182.865 62.8255 182.761 62.876 182.581C67.5283 182.11 72.2032 181.896 76.8793 181.942Z" fill="#09090B"/>
</g>
<rect x="54.4219" y="156" width="36.282" height="28" fill="url(#paint4_linear_920_62353)"/>
<rect x="55.4297" y="157" width="36.282" height="27" fill="white"/>
<rect opacity="0.2" x="57.4492" y="159" width="12.094" height="6" fill="#5C96C4"/>
<rect x="72.5625" y="159" width="14.1096" height="2" fill="#E6E8EC"/>
<rect x="73.5742" y="161" width="9.07049" height="2" fill="#E6E8EC"/>
<rect x="72.5625" y="163" width="14.1096" height="2" fill="#E6E8EC"/>
<rect x="59.4648" y="167" width="28.2193" height="2" fill="#E6E8EC"/>
<rect x="59.4648" y="170" width="28.2193" height="2" fill="#E6E8EC"/>
<rect x="59.4648" y="171" width="28.2193" height="2" fill="#E6E8EC"/>
<rect x="60.4688" y="175" width="25.1958" height="2" fill="#E6E8EC"/>
<rect x="59.4648" y="177" width="28.2193" height="2" fill="#E6E8EC"/>
<rect x="59.4648" y="180" width="28.2193" height="2" fill="#E6E8EC"/>
<path fill-rule="evenodd" clip-rule="evenodd" d="M30.7967 270.724C31.4698 270.181 31.9603 269.449 32.2033 268.625C32.3869 267.79 32.027 266.792 31.219 266.487C30.3156 266.146 29.3496 266.763 28.6188 267.391C27.8879 268.019 27.0469 268.731 26.0883 268.596C27.0905 267.698 27.5423 266.346 27.2783 265.035C27.2368 264.768 27.1226 264.516 26.9477 264.309C26.4446 263.779 25.5374 264.007 24.9351 264.425C23.0253 265.754 22.4928 268.317 22.4818 270.626C22.2908 269.794 22.4524 268.927 22.445 268.084C22.4377 267.242 22.2026 266.269 21.4755 265.826C21.0245 265.587 20.5181 265.468 20.0064 265.481C19.147 265.449 18.1921 265.536 17.6045 266.157C16.8699 266.926 17.0646 268.222 17.7 269.061C18.3353 269.9 19.2976 270.441 20.1864 271.029C20.8987 271.447 21.5063 272.019 21.9639 272.702C22.0177 272.797 22.062 272.897 22.0961 273H27.4692C28.6773 272.393 29.7967 271.628 30.7967 270.724Z" fill="#5C96C4"/>
<path fill-rule="evenodd" clip-rule="evenodd" d="M339.191 221.724C339.864 221.181 340.355 220.449 340.598 219.625C340.781 218.79 340.422 217.792 339.614 217.487C338.71 217.146 337.744 217.763 337.013 218.391C336.282 219.019 335.441 219.731 334.483 219.596C335.485 218.698 335.937 217.346 335.673 216.035C335.631 215.768 335.517 215.516 335.342 215.309C334.839 214.779 333.932 215.007 333.33 215.425C331.42 216.754 330.887 219.317 330.876 221.626C330.685 220.794 330.847 219.927 330.84 219.084C330.832 218.242 330.597 217.269 329.87 216.826C329.419 216.587 328.913 216.468 328.401 216.481C327.542 216.449 326.587 216.536 325.999 217.157C325.264 217.926 325.459 219.222 326.094 220.061C326.73 220.9 327.692 221.441 328.581 222.029C329.293 222.447 329.901 223.019 330.358 223.702C330.412 223.797 330.457 223.897 330.491 224H335.871C337.077 223.393 338.193 222.627 339.191 221.724Z" fill="#5C96C4"/>
<path fill-rule="evenodd" clip-rule="evenodd" d="M249.496 239.724C250.169 239.181 250.66 238.449 250.903 237.625C251.086 236.79 250.726 235.792 249.918 235.487C249.015 235.146 248.049 235.763 247.318 236.391C246.587 237.019 245.746 237.731 244.788 237.596C245.79 236.698 246.241 235.346 245.977 234.035C245.936 233.768 245.822 233.516 245.647 233.309C245.144 232.779 244.237 233.007 243.634 233.425C241.725 234.754 241.192 237.317 241.181 239.626C240.99 238.794 241.152 237.927 241.144 237.084C241.137 236.242 240.902 235.269 240.175 234.826C239.724 234.587 239.217 234.468 238.706 234.481C237.846 234.449 236.891 234.536 236.304 235.157C235.569 235.926 235.764 237.222 236.399 238.061C237.035 238.9 237.997 239.441 238.886 240.029C239.598 240.447 240.206 241.019 240.663 241.702C240.717 241.797 240.761 241.897 240.795 242H246.176C247.381 241.393 248.498 240.627 249.496 239.724Z" fill="#5C96C4"/>
<path fill-rule="evenodd" clip-rule="evenodd" d="M226.316 232.724C226.989 232.181 227.48 231.449 227.723 230.625C227.906 229.79 227.547 228.792 226.739 228.487C225.835 228.146 224.869 228.763 224.138 229.391C223.407 230.019 222.566 230.731 221.608 230.596C222.61 229.698 223.062 228.346 222.798 227.035C222.756 226.768 222.642 226.516 222.467 226.309C221.964 225.779 221.057 226.007 220.455 226.425C218.545 227.754 218.012 230.317 218.001 232.626C217.81 231.794 217.972 230.927 217.965 230.084C217.957 229.242 217.722 228.269 216.995 227.826C216.544 227.587 216.038 227.468 215.526 227.481C214.667 227.449 213.712 227.536 213.124 228.157C212.389 228.926 212.584 230.222 213.219 231.061C213.855 231.9 214.817 232.441 215.706 233.029C216.418 233.447 217.026 234.019 217.483 234.702C217.537 234.797 217.582 234.897 217.616 235H222.996C224.202 234.393 225.318 233.627 226.316 232.724Z" fill="#5C96C4"/>
<path fill-rule="evenodd" clip-rule="evenodd" d="M322.524 235.194C323.915 234.049 324.929 232.504 325.431 230.764C325.81 229.002 325.067 226.894 323.397 226.25C321.53 225.53 319.533 226.833 318.023 228.159C316.512 229.484 314.774 230.987 312.793 230.703C314.864 228.807 315.798 225.953 315.252 223.184C315.167 222.62 314.931 222.09 314.569 221.652C313.529 220.533 311.655 221.015 310.41 221.897C306.463 224.702 305.362 230.113 305.34 234.988C304.945 233.232 305.279 231.401 305.264 229.622C305.249 227.844 304.763 225.79 303.26 224.855C302.328 224.35 301.281 224.099 300.224 224.127C298.448 224.058 296.474 224.242 295.26 225.553C293.742 227.178 294.144 229.914 295.457 231.684C296.77 233.455 298.759 234.597 300.596 235.838C302.068 236.722 303.324 237.93 304.269 239.372C304.381 239.571 304.472 239.782 304.543 240H315.662C318.154 238.718 320.462 237.102 322.524 235.194Z" fill="#5C96C4"/>
<path fill-rule="evenodd" clip-rule="evenodd" d="M359.399 136.087C359.399 136.087 344.974 138.056 341.967 137.478L333.952 130C333.952 130 326.337 135.708 338.361 139.443L360.801 142L359.399 136.087Z" fill="#FDC2CC"/>
<path opacity="0.05" fill-rule="evenodd" clip-rule="evenodd" d="M359.399 136.087C359.399 136.087 344.974 138.056 341.967 137.478L333.952 130C333.952 130 326.337 135.708 338.361 139.443L360.801 142L359.399 136.087Z" fill="#09090B"/>
<rect x="294.285" y="107" width="67.5248" height="52" fill="url(#paint5_linear_920_62353)"/>
<rect x="296.301" y="109" width="65.5091" height="49" fill="white"/>
<rect opacity="0.2" x="300.332" y="113" width="21.1645" height="12" fill="#5C96C4"/>
<rect x="328.555" y="112" width="25.1958" height="3" fill="#E6E8EC"/>
<rect x="328.555" y="118" width="19.1488" height="3" fill="#E6E8EC"/>
<rect x="328.555" y="122" width="25.1958" height="3" fill="#E6E8EC"/>
<rect x="300.332" y="127" width="53.4151" height="3" fill="#E6E8EC"/>
<rect x="300.332" y="132" width="53.4151" height="3" fill="#E6E8EC"/>
<rect x="300.332" y="136" width="53.4151" height="3" fill="#E6E8EC"/>
<rect x="301.344" y="141" width="48.376" height="3" fill="#E6E8EC"/>
<rect x="300.332" y="146" width="53.4151" height="3" fill="#E6E8EC"/>
<rect x="300.332" y="150" width="53.4151" height="3" fill="#E6E8EC"/>
<defs>
<linearGradient id="paint0_linear_920_62353" x1="384.987" y1="213" x2="384.987" y2="41.9929" gradientUnits="userSpaceOnUse">
<stop stop-color="#808080" stop-opacity="0.25"/>
<stop offset="0.54" stop-color="#808080" stop-opacity="0.12"/>
<stop offset="1" stop-color="#808080" stop-opacity="0.1"/>
</linearGradient>
<linearGradient id="paint1_linear_920_62353" x1="168.309" y1="247.996" x2="168.309" y2="91" gradientUnits="userSpaceOnUse">
<stop stop-color="#808080" stop-opacity="0.25"/>
<stop offset="0.54" stop-color="#808080" stop-opacity="0.12"/>
<stop offset="1" stop-color="#808080" stop-opacity="0.1"/>
</linearGradient>
<linearGradient id="paint2_linear_920_62353" x1="86.6731" y1="261" x2="86.6731" y2="139" gradientUnits="userSpaceOnUse">
<stop stop-color="#808080" stop-opacity="0.25"/>
<stop offset="0.54" stop-color="#808080" stop-opacity="0.12"/>
<stop offset="1" stop-color="#808080" stop-opacity="0.1"/>
</linearGradient>
<linearGradient id="paint3_linear_920_62353" x1="136.059" y1="234.998" x2="169.317" y2="234.998" gradientUnits="userSpaceOnUse">
<stop stop-color="#808080" stop-opacity="0.25"/>
<stop offset="0.54" stop-color="#808080" stop-opacity="0.12"/>
<stop offset="1" stop-color="#808080" stop-opacity="0.1"/>
</linearGradient>
<linearGradient id="paint4_linear_920_62353" x1="90.7021" y1="184" x2="90.7021" y2="156" gradientUnits="userSpaceOnUse">
<stop stop-color="#808080" stop-opacity="0.25"/>
<stop offset="0.54" stop-color="#808080" stop-opacity="0.12"/>
<stop offset="1" stop-color="#808080" stop-opacity="0.1"/>
</linearGradient>
<linearGradient id="paint5_linear_920_62353" x1="361.812" y1="159" x2="361.812" y2="107" gradientUnits="userSpaceOnUse">
<stop stop-color="#808080" stop-opacity="0.25"/>
<stop offset="0.54" stop-color="#808080" stop-opacity="0.12"/>
<stop offset="1" stop-color="#808080" stop-opacity="0.1"/>
</linearGradient>
</defs>
</svg>
